<svg xmlns="http://www.w3.org/2000/svg" viewBox="0 0 853.8 561.6" style="enable-background:new 0 0 853.8 561.6" xml:space="preserve"><path d="M266.8 273.8c41.1 9.4 73.8 26.8 98.3 52.3 24.4 25 36.7 53.8 36.7 86.6 0 42.6-18.7 78.3-56.2 106.9-37.4 28.1-85.5 42.1-144.3 42.1-59.3 0-107.6-14-145.1-42.1C18.7 490.9 0 455.3 0 412.6 0 379.9 12.2 351 36.7 326c25-25.5 58-42.9 99.1-52.3-33.3-10.4-60.1-27.3-80.3-50.7S25 172.9 25 142.7c0-40 16.6-73.8 49.9-101.4C108.7 13.8 150.8 0 201.2 0c49.9 0 91.8 13.8 125.6 41.3s50.7 61.4 50.7 101.4c0 30.2-10.1 56.9-30.4 80.3s-47.1 40.4-80.3 50.8zM118.6 83.5c-21.8 18.2-32.8 41.1-32.8 68.6s10.9 50.4 32.8 68.6c21.8 18.2 49.4 27.3 82.7 27.3 32.8 0 60.1-9.1 81.9-27.3 22.4-18.2 33.5-41.1 33.5-68.6s-11.2-50.4-33.5-68.6c-21.8-18.7-49.1-28.1-81.9-28.1-33.3 0-60.9 9.3-82.7 28.1zm82.6 422.7c40.6 0 73.8-9.6 99.8-28.9 26.5-19.2 39.8-43.7 39.8-73.3 0-30.2-13.3-54.9-39.8-74.1-26-19.8-59.3-29.6-99.8-29.6s-74.1 9.9-100.6 29.6c-26.5 19.2-39.8 43.9-39.8 74.1 0 29.6 13 54.1 39 73.3 26.6 19.3 60.4 28.9 101.4 28.9zm280.6-24.9c-41.1-53.6-61.6-120.4-61.6-200.5s20.5-146.9 61.6-200.5S574.6 0 637 0c62.9 0 114.7 26.8 155.2 80.3 41.1 53 61.6 119.9 61.6 200.5S833.3 428.5 792.2 482c-40.6 53-92.3 79.6-155.2 79.6-62.4 0-114.2-26.8-155.2-80.3zm44.4-361.2c-29.1 42.6-43.7 96.2-43.7 160.7s14.6 118 43.7 160.7c29.1 42.6 66 64 110.8 64 44.7 0 81.6-21.3 110.8-64s43.7-96.2 43.7-160.7-14.6-118-43.7-160.7-66-64-110.8-64c-44.7.1-81.7 21.4-110.8 64z" style="fill:#a9abb5"/></svg>