<svg width="25" height="25" fill="none" xmlns="http://www.w3.org/2000/svg"><path fill-rule="evenodd" clip-rule="evenodd" d="M2.15 18.55 0 25l7-1.842a12.23 12.23 0 0 0 5.716 1.411C19.5 24.569 25 19.069 25 12.285 25 5.5 19.5 0 12.716 0 5.93 0 .43 5.5.43 12.284c0 2.29.628 4.431 1.719 6.266Zm15.744-4.477s2.092 1.226 2.659 2.298a1.176 1.176 0 0 1-.207 1.381l-.758.758c-2.404 2.404-5.118 1.22-7.522-1.184L9.87 15.13l-2.197-2.197C5.27 10.528 4.085 7.815 6.49 5.411l.758-.758c.364-.365.924-.45 1.38-.208 1.072.567 2.298 2.66 2.298 2.66.27.472.3 1.043-.181 1.313 0 0-.815.68-.932.853-.535.79-.515 1.521.224 2.26l1.716 1.715 1.716 1.716c.738.739 1.47.76 2.26.225.172-.118.852-.933.852-.933.27-.48.84-.45 1.314-.18Z" fill="#fff"/></svg>