<svg width="129" height="27" fill="none" xmlns="http://www.w3.org/2000/svg"><path d="m0 19.618 2.733-.56c.233 1.518.899 2.697 1.996 3.538 1.121.817 2.593 1.226 4.414 1.226 1.729 0 3.13-.397 4.204-1.191 1.075-.794 1.612-1.81 1.612-3.048 0-.91-.269-1.682-.806-2.312-.514-.63-1.191-1.121-2.032-1.472-.84-.35-1.775-.653-2.802-.91a88.627 88.627 0 0 1-3.048-.911 17.167 17.167 0 0 1-2.803-1.226c-.84-.467-1.53-1.133-2.067-1.997C.887 9.89.631 8.85.631 7.637c0-1.892.77-3.456 2.312-4.694C4.507 1.682 6.469 1.05 8.828 1.05s4.309.619 5.85 1.857c1.565 1.237 2.5 2.837 2.803 4.8l-2.768.56c-.21-1.425-.852-2.581-1.926-3.469-1.051-.887-2.383-1.33-3.994-1.33-1.565 0-2.85.385-3.853 1.155-1.005.771-1.507 1.74-1.507 2.908 0 .887.257 1.635.77 2.242.538.584 1.227 1.04 2.068 1.366.84.304 1.775.596 2.802.876a35.05 35.05 0 0 1 3.048.91c1.028.328 1.962.736 2.803 1.227.84.49 1.518 1.191 2.032 2.102.537.887.805 1.973.805 3.258 0 1.962-.829 3.585-2.487 4.87-1.658 1.26-3.725 1.891-6.2 1.891-2.5 0-4.567-.596-6.201-1.787C1.238 23.297.28 21.674 0 19.619ZM27.447 7.847c2.733 0 4.975.97 6.727 2.908 1.775 1.915 2.557 4.285 2.347 7.111H20.93c.187 1.775.9 3.235 2.137 4.38 1.261 1.12 2.791 1.68 4.59 1.68 1.377 0 2.604-.338 3.678-1.015a6.554 6.554 0 0 0 2.452-2.768l2.242.946a9.136 9.136 0 0 1-3.328 3.784c-1.471.934-3.164 1.401-5.08 1.401-2.639 0-4.857-.876-6.655-2.627-1.775-1.775-2.663-3.97-2.663-6.586s.876-4.8 2.627-6.551c1.752-1.775 3.924-2.663 6.516-2.663Zm0 2.347c-1.611 0-3.012.514-4.203 1.542-1.192 1.027-1.939 2.347-2.242 3.958h12.856c-.257-1.588-.98-2.896-2.172-3.923-1.168-1.051-2.58-1.577-4.239-1.577Zm12.94 15.73h-2.628V0h2.628v25.924ZM50.69 7.847c2.733 0 4.975.97 6.727 2.908 1.774 1.915 2.557 4.285 2.347 7.111h-15.59c.187 1.775.9 3.235 2.137 4.38 1.261 1.12 2.791 1.68 4.59 1.68 1.377 0 2.604-.338 3.678-1.015a6.554 6.554 0 0 0 2.452-2.768l2.242.946a9.136 9.136 0 0 1-3.328 3.784c-1.471.934-3.164 1.401-5.08 1.401-2.639 0-4.857-.876-6.656-2.627-1.775-1.775-2.662-3.97-2.662-6.586s.876-4.8 2.627-6.551c1.752-1.775 3.924-2.663 6.516-2.663Zm0 2.347c-1.611 0-3.012.514-4.203 1.542-1.192 1.027-1.939 2.347-2.242 3.958H57.1c-.257-1.588-.98-2.896-2.172-3.923-1.168-1.051-2.58-1.577-4.239-1.577Zm31.086-2.347c1.869 0 3.41.724 4.624 2.172 1.238 1.448 1.857 3.27 1.857 5.465v10.44H85.63V15.8c0-1.565-.456-2.873-1.367-3.924-.91-1.074-2.02-1.612-3.328-1.612-1.448 0-2.65.526-3.608 1.577-.934 1.05-1.401 2.37-1.401 3.959v10.124h-2.628V15.8c0-1.565-.455-2.873-1.366-3.924-.887-1.074-1.985-1.612-3.293-1.612-1.448 0-2.65.526-3.608 1.577-.934 1.05-1.401 2.37-1.401 3.959v10.124h-2.628V8.198h2.628v4.414c.49-1.448 1.249-2.604 2.277-3.469a5.522 5.522 0 0 1 3.608-1.296c1.471 0 2.744.467 3.819 1.401 1.074.935 1.821 2.173 2.242 3.714.42-1.541 1.179-2.78 2.277-3.714 1.12-.934 2.428-1.4 3.923-1.4Zm16.618 0c2.733 0 4.975.97 6.726 2.908 1.775 1.915 2.558 4.285 2.348 7.111h-15.59c.187 1.775.9 3.235 2.137 4.38 1.261 1.12 2.791 1.68 4.59 1.68 1.377 0 2.604-.338 3.678-1.015a6.552 6.552 0 0 0 2.452-2.768l2.242.946a9.136 9.136 0 0 1-3.328 3.784c-1.471.934-3.164 1.401-5.08 1.401-2.639 0-4.857-.876-6.656-2.627-1.775-1.775-2.662-3.97-2.662-6.586s.876-4.8 2.627-6.551c1.752-1.775 3.924-2.663 6.516-2.663Zm0 2.347c-1.611 0-3.013.514-4.204 1.542-1.19 1.027-1.938 2.347-2.242 3.958h12.857c-.257-1.588-.981-2.896-2.172-3.923-1.168-1.051-2.581-1.577-4.239-1.577Zm19.49-2.347c2.079 0 3.784.724 5.115 2.172 1.355 1.448 2.032 3.27 2.032 5.465v10.44h-2.627V15.8c0-1.565-.514-2.873-1.542-3.924-1.027-1.074-2.3-1.612-3.818-1.612-1.658 0-3.025.526-4.099 1.577-1.074 1.05-1.612 2.37-1.612 3.959v10.124h-2.627V8.198h2.627v4.554c.491-1.495 1.32-2.686 2.488-3.574 1.167-.887 2.522-1.33 4.063-1.33Zm6.709-2.63a2.506 2.506 0 0 1 1.842-.757c.724 0 1.327.252 1.809.757.504.482.757 1.085.757 1.809a2.51 2.51 0 0 1-.757 1.842c-.482.482-1.085.723-1.809.723s-1.338-.24-1.842-.723c-.483-.505-.724-1.119-.724-1.842 0-.724.241-1.327.724-1.81Zm.395 3.289c.394.395.877.592 1.447.592.57 0 1.052-.197 1.447-.592.395-.395.592-.888.592-1.48s-.197-1.086-.592-1.48a1.969 1.969 0 0 0-1.447-.593 1.97 1.97 0 0 0-1.447.592c-.395.395-.593.889-.593 1.48 0 .593.198 1.086.593 1.48Zm2.631-2.007c0 .483-.252.768-.757.856l.724 1.052h-.625l-.691-1.02h-.296v1.02h-.526V5.644h1.184c.263 0 .494.077.691.23a.75.75 0 0 1 .296.625Zm-1.645.46h.592c.351 0 .527-.153.527-.46 0-.285-.176-.427-.527-.427h-.592v.888Z" fill="#A9ABB5"/></svg>