<svg width="25" height="25" fill="none" xmlns="http://www.w3.org/2000/svg"><path fill-rule="evenodd" clip-rule="evenodd" d="M25 12.5C25 19.404 19.404 25 12.5 25S0 19.404 0 12.5 5.596 0 12.5 0 25 5.596 25 12.5ZM13.62 8.923c-2.168.904-8.418 3.469-8.418 3.469-1.48.578-.614 1.12-.614 1.12s1.265.433 2.348.758c1.084.325 1.662-.036 1.662-.036s2.53-1.662 5.094-3.432c1.807-1.228 1.373-.217.94.217-.94.94-2.493 2.42-3.794 3.613-.578.505-.289.939-.036 1.155.736.623 2.468 1.755 3.254 2.269.218.142.364.237.395.26.18.145 1.192.795 1.806.65.614-.144.687-.975.687-.975s.47-2.962.903-5.672c.08-.532.16-1.053.235-1.538.195-1.263.353-2.287.379-2.652.108-1.229-1.192-.723-1.192-.723S14.45 8.562 13.62 8.923Z" fill="#fff"/></svg>