<svg width="63" height="63" fill="none" xmlns="http://www.w3.org/2000/svg"><path d="M8.8 9.2C14.933 3.067 22.4 0 31.2 0c8.8 0 16.133 3.067 22 9.2 6.133 5.867 9.2 13.2 9.2 22s-3.067 16.267-9.2 22.4c-5.867 5.867-13.2 8.8-22 8.8s-16.267-2.933-22.4-8.8C2.933 47.467 0 40 0 31.2c0-8.8 2.933-16.133 8.8-22Zm4.8 40c4.8 4.8 10.667 7.2 17.6 7.2 6.933 0 12.8-2.4 17.6-7.2 4.8-4.8 7.2-10.8 7.2-18 0-7.2-2.4-13.2-7.2-18C44 8.4 38.133 6 31.2 6c-6.933 0-12.8 2.4-17.6 7.2C8.8 18 6.4 24 6.4 31.2c0 7.2 2.4 13.2 7.2 18Zm32-24.4c0 5.867-3.067 9.333-9.2 10.4L45.2 48h-7.6l-8.4-12.4h-3.6V48h-6.4V14.4h14.4c3.2 0 6 .933 8.4 2.8 2.4 1.867 3.6 4.4 3.6 7.6Zm-20 5.6h7.2c4.267 0 6.4-1.867 6.4-5.6 0-3.467-2.133-5.2-6.4-5.2h-7.2v10.8Z" fill="#A9ABB5"/></svg>